<svg xmlns="http://www.w3.org/2000/svg" viewBox="0 0 100 100">
  <path fill="#E8622C" d="M0 33.2C0 5.9 5.9 0 33.2 0h33.6C94.1 0 100 5.9 100 33.2v33.6c0 27.3-5.9 33.2-33.2 33.2H33.2C5.9 100 0 94.1 0 66.8V33.2Z"/>
  <g transform="rotate(3 50 50) translate(-7 -7) scale(1.14)">
    <path stroke="#FFFFFF" stroke-width="5" stroke-linecap="round" fill="none" d="M22 74h26"/>
    <rect x="28" y="44" width="14" height="27" fill="#FFFFFF"/>
    <ellipse cx="35" cy="44" rx="7" ry="2.8" fill="#FFE3E3"/>
    <path stroke="#DEBFBF" stroke-width="1.8" fill="none" d="M28 66.5a7 2.8 0 0 0 14 0"/>
    <path stroke="#FFFFFF" stroke-width="7" stroke-linecap="round" fill="none" d="M35 46 73 21"/>
    <path stroke="#22232E" stroke-width="7" fill="none" d="M43.4 40.5 47.9 37.5M52.5 34.5 57 31.5M61.6 28.5 66.2 25.5"/>
    <circle cx="35" cy="46" r="3.6" fill="#22232E"/>
  </g>
</svg>
